<svg xmlns="http://www.w3.org/2000/svg" width="133" height="24" fill="none"><path d="M131.188 1.16h1.8c-.4 2.52-.6 5.7-.6 9.54v12.66h-.27l-13.89-19.23v9.33c0 4.02.2 7.2.6 9.54h-1.8c.4-2.52.6-5.7.6-9.54V3.29l-1.47-2.04v-.09h3.63l12 16.92V10.7c0-4.02-.2-7.2-.6-9.54zM108.77 23l-2.88-7.17h-8.52c-1.1 2.96-1.69 5.35-1.77 7.17h-2.07c1.06-2.18 2.36-5.18 3.9-9l.24-.57L102.89.68h.12L112.1 23h-3.33zm-11.19-7.71h8.1l-4.05-10.02-3.39 8.37-.66 1.65zM89.346 23h-3.06l-1.86-19.95-7.35 18.57h-.12L68.826 3.8l-.84 9.63c-.2 2.02-.3 3.95-.3 5.79 0 1.4.06 2.66.18 3.78h-1.8c.5-2.22.94-5.42 1.32-9.6l.96-10.74-.66-1.41v-.09h3.3l7.23 16.05 6.33-16.05h2.76L89.346 23zM54.63 12.38l6.72 7.47v3.81h-.18l-8.88-9.9c-.24-.24-.46-.4-.66-.48-.2-.1-.5-.15-.9-.15h-2.01V23h-3.06V1.16h5.37c5.9 0 8.85 1.84 8.85 5.52 0 2.58-1.75 4.48-5.25 5.7zm2.16-5.49c0-1.66-.51-2.95-1.53-3.87-1-.92-2.45-1.38-4.35-1.38h-2.19v10.83c.62.12 1.54.18 2.76.18 1.56 0 2.83-.55 3.81-1.65 1-1.12 1.5-2.49 1.5-4.11zM22.705 15.5V1.16h3.06v14.28c0 2.32.51 4.07 1.53 5.25 1.02 1.18 2.5 1.77 4.44 1.77 1.92 0 3.4-.58 4.44-1.74 1.04-1.18 1.56-2.89 1.56-5.13V10.7c0-4.02-.2-7.2-.6-9.54h1.8c-.4 2.52-.6 5.7-.6 9.54v4.74c0 5.28-2.57 7.92-7.71 7.92-2.6 0-4.57-.67-5.91-2.01-1.34-1.34-2.01-3.29-2.01-5.85zM12.3 10.07l-1.83 3.21V23H7.41v-9.36L.27 1.16h3.51l6.42 11.4 1.56-2.76c2-3.48 3.27-6.36 3.81-8.64h1.89c-1.84 3.06-3.56 6.03-5.16 8.91z" fill="#000"></path></svg>